<?xml version="1.0" standalone="no"?>
<!DOCTYPE svg PUBLIC "-//W3C//DTD SVG 1.1//EN" "http://www.w3.org/Graphics/SVG/1.1/DTD/svg11.dtd" >
<svg xmlns="http://www.w3.org/2000/svg">
<metadata></metadata>
<defs>
<font id="heroic_condensedlight" horiz-adv-x="696" >
<font-face units-per-em="2048" ascent="1536" descent="-512" />
<missing-glyph horiz-adv-x="368" />
<glyph horiz-adv-x="0" />
<glyph horiz-adv-x="682" />
<glyph unicode=" "  horiz-adv-x="368" />
<glyph unicode="&#x09;" horiz-adv-x="368" />
<glyph unicode="&#xa0;" horiz-adv-x="368" />
<glyph unicode="!" horiz-adv-x="344" d="M125 0v113h92v-113h-92zM125 1434h92l-20 -963h-50z" />
<glyph unicode="&#x22;" horiz-adv-x="514" d="M100 1454h99l-27 -385h-43zM315 1454h99l-29 -385h-43z" />
<glyph unicode="#" horiz-adv-x="729" d="M92 618v54h123l25 395h-127v53h129l18 314h55l-18 -314h164l16 314h55l-16 -314h121v-53h-125l-20 -395h124v-54h-129l-16 -311h-55l16 311h-164l-16 -311h-57l18 311h-121zM272 672h164l21 395h-162z" />
<glyph unicode="$" horiz-adv-x="688" d="M141 434v119h66v-123q0 -91 27.5 -130.5t109.5 -39.5q78 0 107.5 41t29.5 131v80q0 55 -19 95t-48.5 63t-66 41.5t-73 39.5t-66 48.5t-48.5 75.5t-19 114v47q0 109 39 167t137 65v166h54v-166q97 -7 135.5 -65t38.5 -167v-92h-64v92q0 90 -30 132t-107 42 q-76 0 -106.5 -42.5t-30.5 -131.5v-47q0 -59 18.5 -101t48.5 -66.5t66 -43.5t72 -38.5t66 -45.5t48.5 -71.5t18.5 -108.5v-80q0 -109 -37.5 -166.5t-136.5 -64.5v-203h-54v203q-100 7 -138 63.5t-38 167.5z" />
<glyph unicode="%" horiz-adv-x="913" d="M115 1096v151q0 110 34 158.5t123 48.5t123.5 -48.5t34.5 -158.5v-151q0 -108 -34.5 -156.5t-123.5 -48.5t-123 48t-34 157zM123 0l606 1434h62l-605 -1434h-63zM174 1096q0 -86 21 -119t77 -33q57 0 78 33.5t21 118.5v153q0 85 -21 118.5t-78 33.5q-56 0 -77 -33 t-21 -119v-153zM485 184v152q0 110 34.5 158.5t123.5 48.5t123.5 -48.5t34.5 -158.5v-152q0 -108 -34.5 -156t-123.5 -48t-123.5 48t-34.5 156zM545 184q0 -86 21 -118.5t77 -32.5t77 32.5t21 118.5v154q0 86 -21 118.5t-77 32.5t-77 -32.5t-21 -118.5v-154z" />
<glyph unicode="&#x26;" horiz-adv-x="823" d="M141 221v291q0 90 35 142t115 69q-81 17 -115.5 69.5t-34.5 143.5v268q0 120 49.5 185t171.5 65q121 0 171.5 -65.5t50.5 -184.5v-160h-68v160q0 189 -154 189q-84 0 -118.5 -48.5t-34.5 -140.5v-276q0 -86 38.5 -130t131.5 -44h344v-62h-139v-497q0 -68 38 -101t101 -33 v-61q-138 0 -174 102q-18 -61 -62.5 -91.5t-126.5 -30.5q-121 0 -170 60.5t-49 180.5zM209 225q0 -92 33.5 -139t119.5 -47q85 0 119.5 47.5t34.5 138.5v467h-137q-98 0 -134 -45.5t-36 -140.5v-281z" />
<glyph unicode="'" horiz-adv-x="280" d="M90 1454h98l-26 -385h-43z" />
<glyph unicode="(" horiz-adv-x="493" d="M121 715q0 367 198 780h52q-187 -443 -187 -780q0 -338 187 -776h-52q-198 409 -198 776z" />
<glyph unicode=")" horiz-adv-x="493" d="M121 -61q186 436 186 776t-186 780h51q199 -415 199 -780t-199 -776h-51z" />
<glyph unicode="*" horiz-adv-x="727" d="M80 1214l26 84l244 -112l-33 268h91l-31 -268l241 112l27 -84l-262 -53l182 -194l-71 -54l-132 234l-131 -234l-71 54l182 194z" />
<glyph unicode="+" horiz-adv-x="790" d="M121 547v53h246v270h57v-270h246v-53h-246v-271h-57v271h-246z" />
<glyph unicode="," horiz-adv-x="286" d="M100 113h95l-50 -293h-45v293z" />
<glyph unicode="-" horiz-adv-x="550" d="M100 543v61h349v-61h-349z" />
<glyph unicode="." horiz-adv-x="294" d="M100 0v113h93v-113h-93z" />
<glyph unicode="/" horiz-adv-x="546" d="M80 -61l321 1556h64l-322 -1556h-63z" />
<glyph unicode="0" d="M127 227v977q0 120 49.5 185t171.5 65t171.5 -65t49.5 -185v-977q0 -120 -49.5 -183.5t-171.5 -63.5t-171.5 63.5t-49.5 183.5zM195 227q0 -90 34.5 -139t118.5 -49q85 0 119.5 48.5t34.5 139.5v977q0 92 -34 140.5t-120 48.5q-84 0 -118.5 -48.5t-34.5 -140.5v-977z" />
<glyph unicode="1" horiz-adv-x="499" d="M86 1247v45q86 0 119 32.5t33 109.5h51v-1371h125v-63h-318v63h125v1184h-135z" />
<glyph unicode="2" horiz-adv-x="645" d="M106 0v205q0 96 20 176t52.5 136t72 105.5t78.5 95t71.5 92.5t52.5 110t20 137v147q0 92 -31.5 140.5t-117.5 48.5q-87 0 -118.5 -48t-31.5 -141v-160h-68v160q0 59 9 101t32 77.5t67.5 53.5t109.5 18t109.5 -18t67 -53.5t31.5 -77.5t9 -101v-143q0 -82 -20 -151 t-52.5 -119t-71.5 -96.5t-78.5 -94.5t-72 -101.5t-52.5 -128.5t-20 -165v-142h375v-63h-443z" />
<glyph unicode="3" horiz-adv-x="673" d="M106 227v183h68v-183q0 -91 34 -139.5t118 -48.5t118.5 48t34.5 140v285q0 89 -33 134.5t-120 45.5h-60v62h60q82 0 112.5 44t30.5 130v282q0 89 -33.5 136t-113.5 47q-81 0 -114.5 -47t-33.5 -136v-166h-65v166q0 118 48 181t165 63q118 0 166.5 -63t48.5 -181v-278 q0 -170 -121 -209q71 -19 101 -71.5t30 -137.5v-287q0 -120 -49.5 -183.5t-171.5 -63.5t-171 63.5t-49 183.5z" />
<glyph unicode="4" horiz-adv-x="645" d="M66 342v76l329 1016h86v-1031h99v-61h-99v-342h-67v342h-348zM125 403h289q0 266 1 547.5t1 364.5z" />
<glyph unicode="5" horiz-adv-x="675" d="M117 227v183h67v-183q0 -91 34.5 -139.5t119.5 -48.5t119.5 48.5t34.5 139.5v391q0 95 -29.5 140t-108.5 45q-102 0 -164 -94h-57l33 725h371v-64h-310l-26 -588q71 80 166 80q106 0 149 -59.5t43 -184.5v-391q0 -120 -49.5 -183.5t-171.5 -63.5t-171.5 63.5t-49.5 183.5 z" />
<glyph unicode="6" d="M127 227v977q0 121 50 185.5t171 64.5t171 -64.5t50 -185.5v-160h-67v160q0 92 -35 140.5t-119 48.5q-83 0 -118 -48.5t-35 -140.5v-446q71 80 170 80q111 0 157.5 -58.5t46.5 -181.5v-371q0 -121 -50 -184t-171 -63t-171 63t-50 184zM195 227q0 -92 34.5 -140t118.5 -48 q85 0 119.5 48.5t34.5 139.5v371q0 94 -34 137t-114 43q-104 0 -159 -96v-455z" />
<glyph unicode="7" horiz-adv-x="536" d="M45 1370v64h447v-52q-130 -369 -169.5 -634.5t-39.5 -747.5h-74q0 425 45 729t172 641h-381z" />
<glyph unicode="8" d="M127 227v267q0 98 27 153.5t104 75.5q-65 21 -92 73t-27 136v278q0 119 46 181.5t163 62.5t164 -63t47 -181v-278q0 -170 -121 -209q77 -20 104 -75.5t27 -153.5v-267q0 -120 -49.5 -183.5t-171.5 -63.5t-171.5 63.5t-49.5 183.5zM195 242q0 -99 32.5 -151t120.5 -52 q89 0 121.5 51.5t32.5 151.5v260q0 96 -30.5 144t-123.5 48t-123 -48t-30 -144v-260zM205 940q0 -94 28.5 -141t114.5 -47t115 47t29 141v256q0 97 -30 147t-114 50q-83 0 -113 -50t-30 -147v-256z" />
<glyph unicode="9" d="M127 227v183h68v-183q0 -92 34.5 -140t118.5 -48t119 48t35 140v469q-68 -80 -170 -80q-111 0 -158 58t-47 182v348q0 121 50 185.5t171 64.5t171 -64.5t50 -185.5v-977q0 -121 -50 -184t-171 -63t-171 63t-50 184zM195 854q0 -94 33.5 -137t113.5 -43q106 0 160 96v434 q0 93 -34.5 141t-119.5 48t-119 -48t-34 -141v-350z" />
<glyph unicode=":" horiz-adv-x="335" d="M121 0v113h92v-113h-92zM121 668v112h92v-112h-92z" />
<glyph unicode=";" horiz-adv-x="327" d="M121 113h94l-49 -293h-45v293zM121 668v112h92v-112h-92z" />
<glyph unicode="&#x3c;" horiz-adv-x="589" d="M100 717l328 778h61l-327 -778l327 -778h-61z" />
<glyph unicode="=" horiz-adv-x="776" d="M121 391v53h532v-53h-532zM121 702v54h532v-54h-532z" />
<glyph unicode="&#x3e;" horiz-adv-x="589" d="M100 -61l328 778l-328 778h62l327 -778l-327 -778h-62z" />
<glyph unicode="?" horiz-adv-x="675" d="M121 1044v158q0 60 8.5 102t31 78t66.5 54t111 18q66 0 110 -18t66 -54t30.5 -78t8.5 -102v-127q0 -73 -10.5 -126t-27 -84t-36.5 -56.5t-40 -51.5t-37 -59.5t-28 -91t-12 -135.5h-53q0 86 9.5 149.5t25 99.5t34.5 63.5t38 51.5t34.5 51.5t25 74.5t9.5 112v129 q0 90 -31.5 140.5t-115.5 50.5q-88 0 -118 -48t-30 -143v-158h-69zM291 0v113h92v-113h-92z" />
<glyph unicode="@" horiz-adv-x="1097" d="M121 244v534q0 471 428 471q426 0 426 -471v-534q0 -469 -426 -469q-428 0 -428 469zM176 244q0 -420 373 -420t373 420v534q0 420 -373 420t-373 -420v-534zM362 266v105q0 100 67.5 158.5t240.5 105.5v125q0 70 -26 106.5t-95 36.5t-96 -37t-27 -106v-39h-57v41 q0 91 41 141.5t139 50.5q99 0 137.5 -50.5t38.5 -143.5v-664h-37l-18 68q-34 -90 -131 -90q-177 0 -177 192zM418 266q0 -143 129 -143q62 0 92.5 42t30.5 107v318q-147 -41 -199.5 -90t-52.5 -129v-105z" />
<glyph unicode="A" horiz-adv-x="636" d="M66 0l215 1434h77l213 -1434h-71l-51 360h-261l-51 -360h-71zM195 422h245l-121 878z" />
<glyph unicode="B" horiz-adv-x="718" d="M147 0v1434h195q134 0 186 -53t52 -169v-299q0 -79 -30.5 -125.5t-100.5 -64.5q77 -17 110 -64.5t33 -130.5v-297q0 -119 -51 -175t-191 -56h-203zM215 63h131q102 0 140 40.5t38 129.5v297q0 80 -40 121t-136 41h-133v-629zM215 754h119q97 0 137.5 39t40.5 118v295 q0 87 -37 125.5t-135 38.5h-125v-616z" />
<glyph unicode="C" horiz-adv-x="675" d="M127 227v977q0 120 49.5 185t171.5 65q120 0 170.5 -65.5t50.5 -184.5v-160h-65v160q0 189 -156 189q-84 0 -118.5 -48.5t-34.5 -140.5v-977q0 -90 34.5 -139t118.5 -49q156 0 156 188v183h65v-183q0 -119 -50 -183t-171 -64q-122 0 -171.5 63.5t-49.5 183.5z" />
<glyph unicode="D" horiz-adv-x="708" d="M137 0v1434h195q139 0 194.5 -64t55.5 -184v-938q0 -121 -53.5 -184.5t-192.5 -63.5h-199zM205 63h129q101 0 140.5 47t39.5 138v938q0 90 -40.5 137t-143.5 47h-125v-1307z" />
<glyph unicode="E" horiz-adv-x="614" d="M137 0v1434h381v-64h-313v-616h268v-62h-268v-629h313v-63h-381z" />
<glyph unicode="F" horiz-adv-x="567" d="M137 0v1434h365v-64h-297v-616h256v-62h-256v-692h-68z" />
<glyph unicode="G" d="M127 225v983q0 119 49.5 182.5t171.5 63.5q121 0 171 -63.5t50 -182.5v-164h-67v164q0 89 -35.5 137t-118.5 48q-84 0 -118.5 -47.5t-34.5 -137.5v-983q0 -90 34.5 -138t118.5 -48q85 0 119.5 47.5t34.5 138.5v467h-154v62h221v-529q0 -119 -49.5 -182t-171.5 -63 t-171.5 63t-49.5 182z" />
<glyph unicode="H" horiz-adv-x="718" d="M137 0v1434h68v-680h309v680h68v-1434h-68v692h-309v-692h-68z" />
<glyph unicode="I" horiz-adv-x="342" d="M137 0v1434h68v-1434h-68z" />
<glyph unicode="J" horiz-adv-x="651" d="M86 227v183h68v-183q0 -95 31 -141.5t116 -46.5t115 46t30 142v1207h68v-1207q0 -126 -44.5 -186.5t-168.5 -60.5q-122 0 -168.5 63t-46.5 184z" />
<glyph unicode="K" horiz-adv-x="661" d="M137 0v1434h68v-680l309 680h78l-330 -709l344 -725h-78l-323 696v-696h-68z" />
<glyph unicode="L" horiz-adv-x="526" d="M137 0v1434h68v-1371h256v-63h-324z" />
<glyph unicode="M" horiz-adv-x="956" d="M137 0v1434h101l239 -1280h2l240 1280h100v-1434h-65v510q0 453 8 825l-252 -1335h-64l-251 1335q8 -380 8 -825v-510h-66z" />
<glyph unicode="N" horiz-adv-x="763" d="M137 0v1434h76l352 -1278q-1 91 -2.5 258.5t-2.5 304t-1 258.5v457h68v-1434h-74l-354 1276q1 -91 2.5 -258t2.5 -303.5t1 -259.5v-455h-68z" />
<glyph unicode="O" d="M127 227v977q0 120 49.5 185t171.5 65t171.5 -65t49.5 -185v-977q0 -120 -49.5 -183.5t-171.5 -63.5t-171.5 63.5t-49.5 183.5zM195 227q0 -90 34.5 -139t118.5 -49q85 0 119.5 48.5t34.5 139.5v977q0 92 -34 140.5t-120 48.5q-84 0 -118.5 -48.5t-34.5 -140.5v-977z" />
<glyph unicode="P" horiz-adv-x="651" d="M137 0v1434h182q139 0 192.5 -63.5t53.5 -184.5v-314q0 -117 -56.5 -180t-193.5 -63h-110v-629h-68zM205 690h108q103 0 144 46t41 136v314q0 90 -40 137t-141 47h-112v-680z" />
<glyph unicode="Q" d="M127 227v977q0 120 49.5 185t171.5 65t171.5 -65t49.5 -185v-977q0 -112 -44 -175.5t-148 -69.5q4 -62 34.5 -88.5t92.5 -26.5h33l-13 -49h-20q-93 0 -137.5 39t-47.5 125q-106 6 -149 69t-43 176zM195 227q0 -90 34.5 -139t118.5 -49q85 0 119.5 48.5t34.5 139.5v977 q0 92 -34 140.5t-120 48.5q-84 0 -118.5 -48.5t-34.5 -140.5v-977z" />
<glyph unicode="R" horiz-adv-x="677" d="M137 0v1434h182q139 0 192.5 -63.5t53.5 -184.5v-314q0 -216 -190 -241l248 -631h-74q-17 47 -118.5 310.5t-121.5 318.5h-104v-629h-68zM205 690h108q103 0 144 46t41 136v314q0 90 -40 137t-141 47h-112v-680z" />
<glyph unicode="S" horiz-adv-x="647" d="M106 231v179h68v-179q0 -94 31.5 -143t118.5 -49t118 48.5t31 143.5v172q0 90 -20 155t-52.5 103t-71.5 67t-78.5 57.5t-72 63.5t-52.5 95t-20 143v115q0 60 9 102.5t31.5 78t67 53.5t110.5 18t110 -18t67 -54t31.5 -78t8.5 -102v-158h-68v158q0 94 -31 142.5t-118 48.5 q-88 0 -119 -48.5t-31 -142.5v-117q0 -74 20 -127.5t52.5 -85.5t71.5 -59t78.5 -58t72 -72t52.5 -111.5t20 -165.5v-175q0 -60 -8.5 -102t-31.5 -78t-67 -53.5t-110 -17.5t-110.5 18t-67 53.5t-31.5 77.5t-9 102z" />
<glyph unicode="T" horiz-adv-x="540" d="M55 1370v64h430v-64h-180v-1370h-67v1370h-183z" />
<glyph unicode="U" horiz-adv-x="690" d="M127 233v1201h70v-1201q0 -96 30.5 -145t118.5 -49t119 49t31 145v1201h67v-1201q0 -60 -9 -102.5t-31.5 -78.5t-67 -54t-109.5 -18q-67 0 -111.5 18t-67.5 54t-31.5 78.5t-8.5 102.5z" />
<glyph unicode="V" horiz-adv-x="636" d="M66 1434h71l182 -1278l181 1278h71l-215 -1434h-73z" />
<glyph unicode="W" horiz-adv-x="1095" d="M86 1434h72l168 -1272l188 1272h70l186 -1272l170 1272h70l-201 -1434h-72l-188 1276l-189 -1276h-71z" />
<glyph unicode="X" horiz-adv-x="641" d="M66 0l219 741l-205 693h72l167 -605l168 605h74l-205 -693l219 -741h-73l-183 651l-182 -651h-71z" />
<glyph unicode="Y" horiz-adv-x="604" d="M55 1434h72l174 -715l176 715h72l-213 -811v-623h-68v623z" />
<glyph unicode="Z" horiz-adv-x="561" d="M86 0v41l324 1329h-320v64h393v-41l-321 -1330h323v-63h-399z" />
<glyph unicode="[" horiz-adv-x="501" d="M162 -246v1741h217v-53h-156v-1635h156v-53h-217z" />
<glyph unicode="\" horiz-adv-x="546" d="M80 1495h63l322 -1556h-64z" />
<glyph unicode="]" horiz-adv-x="501" d="M121 -193h158v1635h-158v53h217v-1741h-217v53z" />
<glyph unicode="^" horiz-adv-x="522" d="M100 1044l133 410h54l133 -410h-51l-109 345l-106 -345h-54z" />
<glyph unicode="_" horiz-adv-x="796" d="M121 0v57h553v-57h-553z" />
<glyph unicode="`" horiz-adv-x="372" d="M100 1376h72l100 -250h-49z" />
<glyph unicode="a" horiz-adv-x="622" d="M96 209v115q0 65 14.5 110.5t54 86.5t108.5 73t178 63v158q0 84 -31 128t-109 44q-83 0 -112 -43t-29 -131v-51h-66v53q0 113 44.5 171t162.5 58t161.5 -58t43.5 -171v-815h-37l-20 78q-43 -98 -158 -98q-107 0 -156 56t-49 173zM162 209q0 -88 33.5 -130t111.5 -42 q71 0 107.5 47.5t36.5 124.5v397q-92 -25 -151 -53.5t-88.5 -65.5t-39.5 -73.5t-10 -89.5v-115z" />
<glyph unicode="b" horiz-adv-x="643" d="M117 0v1454h65v-508q48 98 162 98q105 0 149 -57t44 -180v-596q0 -119 -45.5 -175t-151.5 -56q-118 0 -164 104l-20 -84h-39zM182 215q0 -79 40 -128.5t108 -49.5q76 0 108.5 44t32.5 132v575q0 107 -30.5 153t-106.5 46q-75 0 -113.5 -50t-38.5 -140v-582z" />
<glyph unicode="c" horiz-adv-x="622" d="M106 219v584q0 117 47 179t164 62t163 -62t46 -179v-111h-65v111q0 92 -31.5 138t-112.5 46q-83 0 -114 -46t-31 -138v-584q0 -91 31 -136.5t114 -45.5q81 0 112.5 46t31.5 136v133h65v-133q0 -117 -46 -178t-163 -61q-119 0 -165 61t-46 178z" />
<glyph unicode="d" horiz-adv-x="643" d="M106 211v596q0 123 44.5 180t150.5 57q112 0 160 -98v508h65v-1454h-37l-20 84q-46 -104 -164 -104q-106 0 -152.5 56.5t-46.5 174.5zM172 209q0 -88 34.5 -130t108.5 -42q71 0 108.5 48.5t37.5 129.5v582q0 90 -37.5 140t-112.5 50t-107 -44.5t-32 -135.5v-598z" />
<glyph unicode="e" horiz-adv-x="632" d="M106 219v584q0 117 47 179t164 62t163 -62t46 -179v-275h-354v-309q0 -91 31.5 -136.5t113.5 -45.5q81 0 112.5 46t31.5 136v133h65v-133q0 -117 -46 -178t-163 -61q-119 0 -165 61t-46 178zM172 584h289v207q0 99 -30 147.5t-114 48.5q-83 0 -114 -46t-31 -138v-219z " />
<glyph unicode="f" horiz-adv-x="462" d="M66 967v57h96v236q0 118 39.5 166.5t146.5 48.5q41 0 70 -13v-57q-24 12 -68 12q-72 0 -97.5 -32t-25.5 -125v-236h166v-57h-166v-967h-65v967h-96z" />
<glyph unicode="g" horiz-adv-x="641" d="M76 -109q0 169 145 209q-57 20 -57 74q0 56 59 76q-67 22 -93 79t-26 150v324q0 118 45.5 179.5t163.5 61.5q52 0 95 -16q39 117 139 117q32 0 59 -10v-54q-33 11 -61 11q-76 0 -105 -78q84 -55 84 -211v-324q0 -117 -46.5 -179t-164.5 -62q-49 0 -73.5 -17.5 t-24.5 -46.5q0 -58 94 -61h4q128 0 185 -57t57 -165v-26q0 -213 -240 -213q-127 0 -183 55t-56 158v26zM139 -104v-27q0 -79 41.5 -119.5t134.5 -40.5q177 0 177 160v27q0 81 -42 123t-137 42q-174 0 -174 -165zM170 479q0 -93 30.5 -139.5t112.5 -46.5q84 0 115 46.5 t31 139.5v324q0 91 -31 137.5t-115 46.5q-82 0 -112.5 -46t-30.5 -138v-324z" />
<glyph unicode="h" horiz-adv-x="643" d="M117 0v1454h65v-512q22 47 63 74.5t95 27.5q106 0 151.5 -56t45.5 -175v-813h-66v813q0 88 -32.5 131t-108.5 43q-72 0 -110 -49t-38 -129v-809h-65z" />
<glyph unicode="i" horiz-adv-x="307" d="M115 1198v98h78v-98h-78zM121 0v1024h65v-1024h-65z" />
<glyph unicode="j" horiz-adv-x="307" d="M-70 -281q27 -10 68 -10q72 0 97.5 33t25.5 125v1157h65v-1159q0 -116 -39.5 -164.5t-146.5 -48.5q-40 0 -70 10v57zM115 1198v98h78v-98h-78z" />
<glyph unicode="k" horiz-adv-x="561" d="M117 0v1454h65v-893l256 463h78l-278 -489l299 -535h-76l-279 506v-506h-65z" />
<glyph unicode="l" horiz-adv-x="299" d="M117 0v1454h65v-1454h-65z" />
<glyph unicode="m" horiz-adv-x="997" d="M117 0v1024h39l20 -86q47 106 164 106q137 0 174 -108q23 51 69.5 79.5t108.5 28.5q104 0 151.5 -56t47.5 -173v-815h-66v813q0 86 -33.5 130t-109.5 44q-71 0 -108 -45t-37 -129v-813h-66v813q0 174 -141 174q-71 0 -109.5 -48.5t-38.5 -129.5v-809h-65z" />
<glyph unicode="n" horiz-adv-x="643" d="M117 0v1024h39l20 -86q47 106 164 106q106 0 151.5 -56t45.5 -175v-813h-66v813q0 81 -35 127.5t-106 46.5t-109.5 -48.5t-38.5 -129.5v-809h-65z" />
<glyph unicode="o" horiz-adv-x="632" d="M106 219v584q0 117 47 179t164 62q116 0 162.5 -62t46.5 -179v-584q0 -118 -45.5 -178.5t-163.5 -60.5q-119 0 -165 61t-46 178zM172 219q0 -91 31 -136.5t114 -45.5t113.5 45.5t30.5 136.5v584q0 92 -30.5 138t-113.5 46t-114 -46t-31 -138v-584z" />
<glyph unicode="p" horiz-adv-x="643" d="M117 -328v1352h39l20 -84q48 104 164 104q106 0 151.5 -56t45.5 -175v-598q0 -122 -44 -178.5t-149 -56.5q-114 0 -162 98v-406h-65zM182 225q0 -88 38.5 -138t113.5 -50t106 44t31 134v547q0 54 -5.5 91.5t-20 69.5t-43.5 48t-72 16q-71 0 -109.5 -49.5t-38.5 -130.5 v-582z" />
<glyph unicode="q" horiz-adv-x="643" d="M106 215v598q0 119 45.5 175t151.5 56q116 0 164 -104l20 84h39v-1352h-65v406q-48 -98 -162 -98q-105 0 -149 56.5t-44 178.5zM172 264q0 -117 27 -172t110 -55q75 0 113.5 50t38.5 138v582q0 78 -40 129t-108 51q-76 0 -108.5 -44t-32.5 -132v-547z" />
<glyph unicode="r" horiz-adv-x="405" d="M117 0v1024h43l18 -84q53 107 172 107v-66h-3q-81 0 -123 -47q-42 -48 -42 -139v-795h-65z" />
<glyph unicode="s" horiz-adv-x="595" d="M96 209v143h66v-143q0 -91 28.5 -131.5t108.5 -40.5q78 0 107.5 40.5t29.5 131.5v78q0 55 -19 94.5t-48.5 63t-66 42.5t-73 40t-66 48.5t-48.5 76t-19 114.5v47q0 115 45 173t158 58q114 0 157.5 -57.5t43.5 -173.5v-121h-64v121q0 90 -30 132t-107 42q-78 0 -107.5 -42 t-29.5 -132v-47q0 -59 18.5 -102t48.5 -67.5t66 -44t72 -39.5t66 -46t48.5 -71.5t18.5 -108.5v-78q0 -116 -43 -172.5t-158 -56.5t-159 56.5t-44 172.5z" />
<glyph unicode="t" horiz-adv-x="475" d="M55 967v57h99v272q22 8 65 19v-291h170v-57h-170v-774q0 -90 25.5 -123t95.5 -33q40 0 70 10v-55q-27 -12 -72 -12q-105 0 -144.5 48t-39.5 165v774h-99z" />
<glyph unicode="u" horiz-adv-x="653" d="M117 211v813h65v-813q0 -84 36 -129t108 -45q71 0 108 47.5t37 128.5v811h66v-1024h-37l-21 84q-22 -49 -64.5 -76.5t-99.5 -27.5q-106 0 -152 56.5t-46 174.5z" />
<glyph unicode="v" horiz-adv-x="569" d="M55 1024h70l160 -903l159 903h70l-197 -1024h-65z" />
<glyph unicode="w" horiz-adv-x="929" d="M66 1024h67l141 -911q71 403 156 911h70q44 -252 155 -911l142 911h67l-172 -1024h-69q-34 203 -158 905q-34 -204 -158 -905h-69z" />
<glyph unicode="x" horiz-adv-x="559" d="M45 0l201 516l-191 508h70l154 -438l153 438h72l-193 -508l203 -516h-72l-163 444l-164 -444h-70z" />
<glyph unicode="y" horiz-adv-x="630" d="M55 -279q27 -12 70 -12q59 0 92.5 34.5t48.5 106.5l31 148l-215 1026h70l176 -895l178 895h69l-245 -1180q-21 -101 -67.5 -146.5t-137.5 -45.5q-43 0 -70 10v59z" />
<glyph unicode="z" horiz-adv-x="542" d="M86 0v39l299 928h-285v57h357v-41l-299 -928h309v-55h-381z" />
<glyph unicode="{" horiz-adv-x="587" d="M121 598v53h67q56 0 79.5 24.5t23.5 74.5q0 70 -16.5 146t-37 132t-37 130.5t-16.5 141.5q0 104 56.5 149.5t185.5 45.5h39v-53h-39q-99 0 -139.5 -34t-40.5 -116q0 -96 49 -268t49 -272q0 -105 -76 -127q76 -28 76 -129q0 -100 -49 -272.5t-49 -268.5q0 -82 40 -115 t140 -33h39v-53h-39q-129 0 -185.5 45.5t-56.5 149.5q0 67 16.5 141.5t37 130t37 131.5t16.5 146q0 51 -23 75.5t-80 24.5h-67z" />
<glyph unicode="|" horiz-adv-x="382" d="M162 -246v1741h57v-1741h-57z" />
<glyph unicode="}" horiz-adv-x="587" d="M121 -193h41q99 0 138.5 33t39.5 115q0 96 -49 268.5t-49 272.5q0 102 75 129q-75 22 -75 127q0 100 49 272t49 268q0 82 -39.5 116t-138.5 34h-41v53h41q129 0 184 -45t55 -150q0 -84 -26.5 -178t-53 -189.5t-26.5 -182.5q0 -50 23.5 -74.5t80.5 -24.5h66v-53h-66 q-58 0 -81 -24t-23 -76q0 -87 26.5 -182.5t53 -189t26.5 -177.5q0 -105 -55 -150t-184 -45h-41v53z" />
<glyph unicode="~" horiz-adv-x="663" d="M104 1315q0 71 25.5 105t85.5 34q36 0 63.5 -17t42.5 -37t38 -37t51 -17q40 0 52.5 21t12.5 67h47q0 -73 -25 -106.5t-85 -33.5q-37 0 -64.5 17t-42 37.5t-37 37.5t-49.5 17q-41 0 -53 -21t-12 -67h-50z" />
<glyph unicode="&#xa1;" horiz-adv-x="344" d="M125 -410l22 963h50l20 -963h-92zM125 911v113h92v-113h-92z" />
<glyph unicode="&#xa2;" horiz-adv-x="702" d="M141 444v584q0 111 40.5 172t144.5 68v166h51v-166q102 -7 143 -68.5t41 -171.5v-110h-65v110q0 92 -31.5 138t-112.5 46q-83 0 -114 -46t-31 -138v-584q0 -91 31 -136.5t114 -45.5q81 0 112.5 46t31.5 136v134h65v-134q0 -111 -40.5 -171.5t-143.5 -67.5v-205h-51v205 q-104 7 -144.5 67t-40.5 172z" />
<glyph unicode="&#xa3;" horiz-adv-x="811" d="M100 0v63q89 0 121.5 47.5t32.5 141.5v446h-148v50h148v454q0 60 8.5 102t31.5 78t67.5 54t111.5 18q65 0 108.5 -18t66 -53.5t31.5 -78t9 -102.5v-158h-67v158q0 95 -30 143t-118 48t-119.5 -48.5t-31.5 -142.5v-454h170v-50h-170v-446q0 -94 32 -141.5t121 -47.5h215 v-63h-215q-80 0 -124 26.5t-64 79.5q-19 -53 -63.5 -79.5t-123.5 -26.5z" />
<glyph unicode="&#xa4;" horiz-adv-x="651" d="M90 0l96 322q-49 57 -49 184v461q0 125 51 184l-84 283h66l74 -248q42 22 104 22q63 0 105 -22l73 248h68l-88 -283q51 -56 51 -184v-461q0 -127 -49 -184l100 -322h-67l-86 289q-44 -23 -107 -23q-62 0 -106 23l-86 -289h-66zM203 506q0 -91 31 -136.5t114 -45.5 t113.5 45.5t30.5 136.5v461q0 92 -30.5 138t-113.5 46t-114 -46t-31 -138v-461z" />
<glyph unicode="&#xa5;" d="M100 1434h72l174 -725l176 725h72q-14 -56 -104.5 -396.5t-108.5 -416.5v-76h188v-47h-188v-181h188v-47h-188v-270h-68v270h-184v47h184v181h-184v47h184v76q-15 60 -104.5 399t-108.5 414z" />
<glyph unicode="&#xa6;" horiz-adv-x="382" d="M162 -246v774h57v-774h-57zM162 721v774h57v-774h-57z" />
<glyph unicode="&#xa7;" horiz-adv-x="677" d="M121 582q0 54 5 95t19 83.5t44 71t75 40.5q-33 19 -55 39t-43.5 51.5t-32 78.5t-10.5 110v51q0 59 9.5 102t33 78.5t66.5 53.5t106 18q123 0 170 -65t47 -187v-137h-68v137q0 94 -31.5 142.5t-117.5 48.5q-85 0 -116.5 -48.5t-31.5 -142.5v-55q0 -58 12.5 -101t34 -70 t49 -47.5t58 -37t60.5 -34.5t57.5 -45t49 -63.5t34 -94t12.5 -132.5q0 -53 -5.5 -94.5t-20 -84t-44.5 -71.5t-75 -41q45 -26 73 -54t49 -85.5t21 -138.5v-49q0 -121 -48 -186.5t-169 -65.5q-63 0 -106 18t-66.5 53.5t-33 78.5t-9.5 102v137h67v-137q0 -97 32.5 -145 t115.5 -48q86 0 117.5 47t31.5 146v53q0 58 -12.5 101t-33.5 70t-48.5 47.5t-58 37t-61 34.5t-58 45t-48.5 63.5t-33.5 94t-12.5 132.5zM190 573q0 -71 12 -123t36.5 -86t48 -53.5t59.5 -40.5q33 2 57.5 13.5t39.5 32.5t24 42.5t13.5 53t5.5 54t1 56.5q0 73 -11.5 126.5 t-35.5 88.5t-48.5 55.5t-61.5 41.5q-29 -2 -51.5 -13t-37 -24.5t-25 -36.5t-15.5 -41.5t-7.5 -48.5t-3 -48t-0.5 -49z" />
<glyph unicode="&#xa8;" horiz-adv-x="503" d="M106 1198v98h78v-98h-78zM317 1198v98h78v-98h-78z" />
<glyph unicode="&#xa9;" horiz-adv-x="1101" d="M121 449v534q0 471 430 471q428 0 428 -471v-534q0 -469 -428 -469q-430 0 -430 469zM176 449q0 -72 10 -131.5t36.5 -114t68 -92t107.5 -60t153 -22.5q375 0 375 420v534q0 420 -375 420t-375 -420v-534zM375 471v490q0 92 39 143t137 51q97 0 136.5 -50.5t39.5 -141.5 v-105h-57v105q0 68 -26.5 105.5t-92.5 37.5q-70 0 -95.5 -37t-25.5 -108v-490q0 -70 26 -107.5t95 -37.5q66 0 92.5 37.5t26.5 105.5v127h57v-127q0 -91 -40 -142t-136 -51q-97 0 -136.5 51.5t-39.5 143.5z" />
<glyph unicode="&#xaa;" horiz-adv-x="600" d="M121 770v107q0 100 65.5 159t235.5 105v123q0 71 -23.5 105t-95.5 34q-69 0 -94 -34t-25 -103v-41h-57v41q0 92 38.5 140t137.5 48q102 0 139 -48.5t37 -141.5v-666h-39l-16 66q-40 -89 -135 -89q-90 0 -129 47t-39 148zM125 416v47h354v-47h-354zM178 770 q0 -72 28 -108.5t95 -36.5q61 0 91 42t30 107v320q-146 -41 -195 -88.5t-49 -128.5v-107z" />
<glyph unicode="&#xab;" horiz-adv-x="782" d="M100 512l219 379h76l-217 -379l217 -379h-76zM387 512l217 379h78l-217 -379l217 -379h-78z" />
<glyph unicode="&#xac;" horiz-adv-x="776" d="M121 692v53h532v-344h-55v291h-477z" />
<glyph unicode="&#xad;" horiz-adv-x="550" d="M100 543v61h349v-61h-349z" />
<glyph unicode="&#xae;" horiz-adv-x="1101" d="M121 449v534q0 471 430 471q428 0 428 -471v-534q0 -469 -428 -469q-430 0 -430 469zM176 449q0 -72 10 -131.5t36.5 -114t68 -92t107.5 -60t153 -22.5q375 0 375 420v534q0 420 -375 420t-375 -420v-534zM381 295v848h151q114 0 157.5 -50.5t43.5 -146.5v-100 q0 -167 -147 -187l168 -364h-60l-164 360h-94v-360h-55zM436 707h94q84 0 115 34.5t31 104.5v100q0 71 -31.5 108.5t-114.5 37.5h-94v-385z" />
<glyph unicode="&#xaf;" horiz-adv-x="550" d="M100 1214v54h349v-54h-349z" />
<glyph unicode="&#xb0;" horiz-adv-x="542" d="M100 1233q0 108 37 164.5t133 56.5t133 -56.5t37 -164.5t-37 -164.5t-133 -56.5t-133 56.5t-37 164.5zM154 1233q0 -87 24 -130.5t92 -43.5q69 0 94 44t25 130q0 85 -25 128.5t-94 43.5q-68 0 -92 -43t-24 -129z" />
<glyph unicode="&#xb1;" horiz-adv-x="790" d="M121 184v54h549v-54h-549zM121 666v53h246v270h57v-270h246v-53h-246v-271h-57v271h-246z" />
<glyph unicode="&#xb4;" horiz-adv-x="372" d="M100 1126l101 250h71l-122 -250h-50z" />
<glyph unicode="&#xb6;" horiz-adv-x="731" d="M121 633v553q0 121 53.5 184.5t192.5 63.5h223v-1762h-68v717h-151q-139 0 -194.5 62t-55.5 182z" />
<glyph unicode="&#xb7;" horiz-adv-x="335" d="M121 516v113h92v-113h-92z" />
<glyph unicode="&#xb8;" horiz-adv-x="468" d="M106 -348l13 47h71q61 0 88 20.5t27 63.5q0 84 -117 84h-24l37 133h43l-23 -90q144 -11 144 -129q0 -129 -172 -129h-87z" />
<glyph unicode="&#xba;" horiz-adv-x="595" d="M121 416v47h352v-47h-352zM121 772v483q0 95 37 147t139 52t139 -52t37 -147v-483q0 -95 -37 -147t-139 -52t-139 52t-37 147zM178 772q0 -72 24.5 -110.5t94.5 -38.5t95.5 39t25.5 110v483q0 71 -25.5 109.5t-95.5 38.5t-94.5 -38.5t-24.5 -109.5v-483z" />
<glyph unicode="&#xbb;" horiz-adv-x="782" d="M100 133l217 379l-217 379h78l217 -379l-217 -379h-78zM387 133l217 379l-217 379h76l219 -379l-219 -379h-76z" />
<glyph unicode="&#xbc;" horiz-adv-x="501" d="M100 696v39h301v-39h-301zM131 135v37q9 27 70.5 208.5t74.5 221.5h46v-428h40v-39h-40v-135h-41v135h-150zM170 174h111v340zM172 1346v28q36 0 51 13.5t15 46.5h32v-564h56v-39h-152v39h55v476h-57z" />
<glyph unicode="&#xbd;" horiz-adv-x="501" d="M100 696v39h301v-39h-301zM154 422v76q0 55 21.5 83.5t76.5 28.5t76.5 -29t21.5 -83v-56q0 -47 -16 -85.5t-38 -65.5t-44.5 -54t-38.5 -66.5t-16 -88.5v-43h159v-39h-200v82q0 54 16 97.5t38 72t44.5 55t38.5 60t16 73.5v58q0 73 -57 73t-57 -73v-76h-41zM172 1346v28 q36 0 51 13.5t15 46.5h32v-564h56v-39h-152v39h55v476h-57z" />
<glyph unicode="&#xbe;" horiz-adv-x="501" d="M100 696v39h301v-39h-301zM131 135v37q9 27 70.5 208.5t74.5 221.5h46v-428h40v-39h-40v-135h-41v135h-150zM154 934v61h39v-55q0 -80 61 -80q59 0 59 74v106q0 37 -11 56.5t-44 19.5h-37v39h37q30 0 39.5 16.5t9.5 49.5v104q0 78 -55 78q-59 0 -59 -72v-69h-39v69 q0 54 22 82.5t76 28.5q52 0 74 -29t22 -82v-108q0 -66 -39 -86q24 -14 33.5 -33.5t9.5 -56.5v-113q0 -55 -22 -83t-76 -28q-55 0 -77.5 28.5t-22.5 82.5zM170 174h111v340z" />
<glyph unicode="&#xbf;" horiz-adv-x="675" d="M121 -51q0 72 10.5 125t27 84t36 56t40 51.5t37 60t27.5 91t12 136.5h54q0 -86 -10 -150t-25.5 -100.5t-34 -64t-37.5 -51t-34.5 -51.5t-25.5 -75t-10 -112v-127q0 -90 33 -141.5t117 -51.5q46 0 76 13.5t45 41.5t20.5 59.5t5.5 78.5v158h68v-158q0 -60 -8.5 -102 t-30.5 -78t-66 -54t-110 -18t-110 18t-67 54t-31.5 78t-8.5 102v127zM293 911v113h92v-113h-92z" />
<glyph unicode="&#xc0;" horiz-adv-x="636" d="M66 0l215 1434h77l213 -1434h-71l-51 360h-261l-51 -360h-71zM174 1786h72l100 -250h-49zM195 422h245l-121 878z" />
<glyph unicode="&#xc1;" horiz-adv-x="636" d="M66 0l215 1434h77l213 -1434h-71l-51 360h-261l-51 -360h-71zM195 422h245l-121 878zM295 1536l100 250h72l-123 -250h-49z" />
<glyph unicode="&#xc2;" horiz-adv-x="636" d="M66 0l215 1434h77l213 -1434h-71l-51 360h-261l-51 -360h-71zM170 1536l115 250h65l115 -250h-53l-95 186l-96 -186h-51zM195 422h245l-121 878z" />
<glyph unicode="&#xc3;" horiz-adv-x="636" d="M66 0l215 1434h77l213 -1434h-71l-51 360h-261l-51 -360h-71zM106 1556q0 72 26 106t89 34q35 0 62 -16.5t42 -36t38 -36t51 -16.5q40 0 53.5 20t13.5 64h49q0 -73 -25.5 -106t-86.5 -33q-30 0 -53.5 10.5t-39 26t-29.5 31t-32.5 26t-40.5 10.5q-40 0 -52.5 -20.5 t-12.5 -63.5h-52zM195 422h245l-121 878z" />
<glyph unicode="&#xc4;" horiz-adv-x="636" d="M66 0l215 1434h77l213 -1434h-71l-51 360h-261l-51 -360h-71zM174 1536v98h78v-98h-78zM195 422h245l-121 878zM385 1536v98h78v-98h-78z" />
<glyph unicode="&#xc5;" horiz-adv-x="636" d="M66 0l215 1434h77l213 -1434h-71l-51 360h-261l-51 -360h-71zM184 1673q0 156 133 156q68 0 102 -41.5t34 -114.5q0 -71 -34 -111t-102 -40q-133 0 -133 151zM195 422h245l-121 878zM236 1673q0 -106 81 -106q84 0 84 106q0 111 -84 111q-81 0 -81 -111z" />
<glyph unicode="&#xc6;" horiz-adv-x="940" d="M70 0l364 1434h412v-64h-311v-616h268v-62h-268v-629h311v-63h-379v360h-236l-90 -360h-71zM244 422h223v895z" />
<glyph unicode="&#xc7;" horiz-adv-x="675" d="M127 227v977q0 120 49.5 185t171.5 65q120 0 170.5 -65.5t50.5 -184.5v-160h-65v160q0 189 -156 189q-84 0 -118.5 -48.5t-34.5 -140.5v-977q0 -90 34.5 -139t118.5 -49q156 0 156 188v183h65v-183q0 -114 -45.5 -177.5t-154.5 -69.5l-19 -70q144 -11 144 -129 q0 -129 -172 -129h-86l12 47h71q63 0 90 20.5t27 63.5q0 84 -117 84h-24l29 113q-108 6 -152.5 69.5t-44.5 177.5z" />
<glyph unicode="&#xc8;" horiz-adv-x="614" d="M137 0v1434h381v-64h-313v-616h268v-62h-268v-629h313v-63h-381zM221 1786h72l100 -250h-49z" />
<glyph unicode="&#xc9;" horiz-adv-x="614" d="M137 0v1434h381v-64h-313v-616h268v-62h-268v-629h313v-63h-381zM303 1536l100 250h72l-123 -250h-49z" />
<glyph unicode="&#xca;" horiz-adv-x="614" d="M137 0v1434h381v-64h-313v-616h268v-62h-268v-629h313v-63h-381zM180 1536l115 250h65l115 -250h-53l-94 186l-97 -186h-51z" />
<glyph unicode="&#xcb;" horiz-adv-x="614" d="M137 0v1434h381v-64h-313v-616h268v-62h-268v-629h313v-63h-381zM182 1536v98h78v-98h-78zM393 1536v98h78v-98h-78z" />
<glyph unicode="&#xcc;" horiz-adv-x="342" d="M20 1786h72l101 -250h-50zM137 0v1434h68v-1434h-68z" />
<glyph unicode="&#xcd;" horiz-adv-x="342" d="M137 0v1434h68v-1434h-68zM145 1536l101 250h71l-122 -250h-50z" />
<glyph unicode="&#xce;" horiz-adv-x="342" d="M25 1536l114 250h66l114 -250h-53l-94 186l-96 -186h-51zM137 0v1434h68v-1434h-68z" />
<glyph unicode="&#xcf;" horiz-adv-x="342" d="M27 1536v98h77v-98h-77zM137 0v1434h68v-1434h-68zM238 1536v98h77v-98h-77z" />
<glyph unicode="&#xd0;" horiz-adv-x="716" d="M31 698v52h110v684h195q139 0 194.5 -64t55.5 -184v-938q0 -121 -53.5 -184.5t-192.5 -63.5h-199v698h-110zM209 61h129q58 0 95.5 16.5t55 49.5t23.5 68.5t6 87.5v884q0 100 -39.5 151.5t-144.5 51.5h-125v-620h123v-52h-123v-637z" />
<glyph unicode="&#xd1;" horiz-adv-x="763" d="M137 0v1434h76l352 -1278q-1 91 -2.5 258.5t-2.5 304t-1 258.5v457h68v-1434h-74l-354 1276q1 -91 2.5 -258t2.5 -303.5t1 -259.5v-455h-68zM170 1556q0 72 26 106t89 34q35 0 62 -16.5t41.5 -36t37.5 -36t51 -16.5q40 0 54 20.5t14 63.5h49q0 -72 -25.5 -105.5 t-87.5 -33.5q-30 0 -53.5 10.5t-38.5 26t-29 31t-32.5 26t-40.5 10.5q-40 0 -53 -20.5t-13 -63.5h-51z" />
<glyph unicode="&#xd2;" d="M127 227v977q0 120 49.5 185t171.5 65t171.5 -65t49.5 -185v-977q0 -120 -49.5 -183.5t-171.5 -63.5t-171.5 63.5t-49.5 183.5zM195 227q0 -90 34.5 -139t118.5 -49q85 0 119.5 48.5t34.5 139.5v977q0 92 -34 140.5t-120 48.5q-84 0 -118.5 -48.5t-34.5 -140.5v-977z M207 1786h72l100 -250h-49z" />
<glyph unicode="&#xd3;" d="M127 227v977q0 120 49.5 185t171.5 65t171.5 -65t49.5 -185v-977q0 -120 -49.5 -183.5t-171.5 -63.5t-171.5 63.5t-49.5 183.5zM195 227q0 -90 34.5 -139t118.5 -49q85 0 119.5 48.5t34.5 139.5v977q0 92 -34 140.5t-120 48.5q-84 0 -118.5 -48.5t-34.5 -140.5v-977z M334 1536l100 250h72l-123 -250h-49z" />
<glyph unicode="&#xd4;" d="M127 227v977q0 120 49.5 185t171.5 65t171.5 -65t49.5 -185v-977q0 -120 -49.5 -183.5t-171.5 -63.5t-171.5 63.5t-49.5 183.5zM195 227q0 -90 34.5 -139t118.5 -49q85 0 119.5 48.5t34.5 139.5v977q0 92 -34 140.5t-120 48.5q-84 0 -118.5 -48.5t-34.5 -140.5v-977z M201 1536l114 250h66l115 -250h-54l-94 186l-96 -186h-51z" />
<glyph unicode="&#xd5;" d="M127 227v977q0 120 49.5 185t171.5 65t171.5 -65t49.5 -185v-977q0 -120 -49.5 -183.5t-171.5 -63.5t-171.5 63.5t-49.5 183.5zM135 1556q0 72 26 106t89 34q35 0 62 -16.5t41.5 -36t37.5 -36t51 -16.5q40 0 54 20.5t14 63.5h49q0 -72 -25.5 -105.5t-87.5 -33.5 q-30 0 -53.5 10.5t-38.5 26t-29 31t-32.5 26t-40.5 10.5q-40 0 -53 -20.5t-13 -63.5h-51zM195 227q0 -90 34.5 -139t118.5 -49q85 0 119.5 48.5t34.5 139.5v977q0 92 -34 140.5t-120 48.5q-84 0 -118.5 -48.5t-34.5 -140.5v-977z" />
<glyph unicode="&#xd6;" d="M127 227v977q0 120 49.5 185t171.5 65t171.5 -65t49.5 -185v-977q0 -120 -49.5 -183.5t-171.5 -63.5t-171.5 63.5t-49.5 183.5zM195 227q0 -90 34.5 -139t118.5 -49q85 0 119.5 48.5t34.5 139.5v977q0 92 -34 140.5t-120 48.5q-84 0 -118.5 -48.5t-34.5 -140.5v-977z M203 1536v98h78v-98h-78zM414 1536v98h78v-98h-78z" />
<glyph unicode="&#xd7;" horiz-adv-x="745" d="M121 360l211 213l-211 211l39 39l213 -211l211 211l39 -39l-211 -211l211 -213l-39 -38l-211 210l-213 -210z" />
<glyph unicode="&#xd8;" d="M127 227v977q0 120 49.5 185t171.5 65q36 0 86 -12l8 53h41q-8 -45 -10 -70q96 -52 96 -221v-977q0 -120 -49.5 -183.5t-171.5 -63.5q-36 0 -86 12l-8 -53h-39l8 67q-96 52 -96 221zM195 227q0 -102 38 -145l193 1296q-30 15 -78 15q-84 0 -118.5 -48.5t-34.5 -140.5 v-977zM270 53q35 -14 78 -14q85 0 119.5 48.5t34.5 139.5v977q0 102 -41 148z" />
<glyph unicode="&#xd9;" horiz-adv-x="690" d="M127 233v1201h70v-1201q0 -96 30.5 -145t118.5 -49t119 49t31 145v1201h67v-1201q0 -60 -9 -102.5t-31.5 -78.5t-67 -54t-109.5 -18q-67 0 -111.5 18t-67.5 54t-31.5 78.5t-8.5 102.5zM207 1786h72l100 -250h-49z" />
<glyph unicode="&#xda;" horiz-adv-x="690" d="M127 233v1201h70v-1201q0 -96 30.5 -145t118.5 -49t119 49t31 145v1201h67v-1201q0 -60 -9 -102.5t-31.5 -78.5t-67 -54t-109.5 -18q-67 0 -111.5 18t-67.5 54t-31.5 78.5t-8.5 102.5zM326 1536l100 250h72l-123 -250h-49z" />
<glyph unicode="&#xdb;" horiz-adv-x="690" d="M127 233v1201h70v-1201q0 -96 30.5 -145t118.5 -49t119 49t31 145v1201h67v-1201q0 -60 -9 -102.5t-31.5 -78.5t-67 -54t-109.5 -18q-67 0 -111.5 18t-67.5 54t-31.5 78.5t-8.5 102.5zM197 1536l114 250h66l115 -250h-54l-94 186l-96 -186h-51z" />
<glyph unicode="&#xdc;" horiz-adv-x="690" d="M127 233v1201h70v-1201q0 -96 30.5 -145t118.5 -49t119 49t31 145v1201h67v-1201q0 -60 -9 -102.5t-31.5 -78.5t-67 -54t-109.5 -18q-67 0 -111.5 18t-67.5 54t-31.5 78.5t-8.5 102.5zM201 1536v98h78v-98h-78zM412 1536v98h77v-98h-77z" />
<glyph unicode="&#xdd;" horiz-adv-x="604" d="M55 1434h72l174 -715l176 715h72l-213 -811v-623h-68v623zM276 1536l101 250h72l-123 -250h-50z" />
<glyph unicode="&#xde;" horiz-adv-x="651" d="M137 0v1434h68v-295h114q139 0 192.5 -63.5t53.5 -184.5v-313q0 -120 -55.5 -182t-194.5 -62h-110v-334h-68zM205 395h108q106 0 145.5 46.5t39.5 142.5v301q0 98 -38.5 144t-142.5 46h-112v-680z" />
<glyph unicode="&#xdf;" horiz-adv-x="632" d="M106 0v1255q0 114 48 167t155 53t155 -53t48 -167v-229q0 -84 -20 -131.5t-72 -71.5q58 -22 82 -72t24 -133v-421q0 -116 -45.5 -166.5t-156.5 -50.5q-30 0 -62 8v57q19 -8 60 -8q77 0 108 34t31 122v407q0 97 -28.5 144t-115.5 47h-10v61q81 0 110 39.5t29 130.5v233 q0 89 -32.5 125.5t-104.5 36.5q-74 0 -105.5 -36.5t-31.5 -125.5v-1255h-66z" />
<glyph unicode="&#xe0;" horiz-adv-x="622" d="M96 209v115q0 65 14.5 110.5t54 86.5t108.5 73t178 63v158q0 84 -31 128t-109 44q-83 0 -112 -43t-29 -131v-51h-66v53q0 113 44.5 171t162.5 58t161.5 -58t43.5 -171v-815h-37l-20 78q-43 -98 -158 -98q-107 0 -156 56t-49 173zM162 209q0 -88 33.5 -130t111.5 -42 q71 0 107.5 47.5t36.5 124.5v397q-92 -25 -151 -53.5t-88.5 -65.5t-39.5 -73.5t-10 -89.5v-115zM180 1376h72l100 -250h-49z" />
<glyph unicode="&#xe1;" horiz-adv-x="622" d="M96 209v115q0 65 14.5 110.5t54 86.5t108.5 73t178 63v158q0 84 -31 128t-109 44q-83 0 -112 -43t-29 -131v-51h-66v53q0 113 44.5 171t162.5 58t161.5 -58t43.5 -171v-815h-37l-20 78q-43 -98 -158 -98q-107 0 -156 56t-49 173zM162 209q0 -88 33.5 -130t111.5 -42 q71 0 107.5 47.5t36.5 124.5v397q-92 -25 -151 -53.5t-88.5 -65.5t-39.5 -73.5t-10 -89.5v-115zM287 1126l100 250h72l-123 -250h-49z" />
<glyph unicode="&#xe2;" horiz-adv-x="622" d="M96 209v115q0 65 14.5 110.5t54 86.5t108.5 73t178 63v158q0 84 -31 128t-109 44q-83 0 -112 -43t-29 -131v-51h-66v53q0 113 44.5 171t162.5 58t161.5 -58t43.5 -171v-815h-37l-20 78q-43 -98 -158 -98q-107 0 -156 56t-49 173zM162 209q0 -88 33.5 -130t111.5 -42 q71 0 107.5 47.5t36.5 124.5v397q-92 -25 -151 -53.5t-88.5 -65.5t-39.5 -73.5t-10 -89.5v-115zM162 1126l114 250h66l115 -250h-54l-94 187l-96 -187h-51z" />
<glyph unicode="&#xe3;" horiz-adv-x="622" d="M96 209v115q0 65 14.5 110.5t54 86.5t108.5 73t178 63v158q0 84 -31 128t-109 44q-83 0 -112 -43t-29 -131v-51h-66v53q0 113 44.5 171t162.5 58t161.5 -58t43.5 -171v-815h-37l-20 78q-43 -98 -158 -98q-107 0 -156 56t-49 173zM98 1167q0 72 26 106t89 34 q35 0 62 -16.5t42 -36t38 -36t51 -16.5q40 0 53.5 20t13.5 64h49q0 -73 -25.5 -106t-86.5 -33q-37 0 -65 16.5t-42.5 35.5t-37.5 35.5t-50 16.5q-40 0 -52.5 -20.5t-12.5 -63.5h-52zM162 209q0 -88 33.5 -130t111.5 -42q71 0 107.5 47.5t36.5 124.5v397q-92 -25 -151 -53.5 t-88.5 -65.5t-39.5 -73.5t-10 -89.5v-115z" />
<glyph unicode="&#xe4;" horiz-adv-x="622" d="M96 209v115q0 65 14.5 110.5t54 86.5t108.5 73t178 63v158q0 84 -31 128t-109 44q-83 0 -112 -43t-29 -131v-51h-66v53q0 113 44.5 171t162.5 58t161.5 -58t43.5 -171v-815h-37l-20 78q-43 -98 -158 -98q-107 0 -156 56t-49 173zM162 209q0 -88 33.5 -130t111.5 -42 q71 0 107.5 47.5t36.5 124.5v397q-92 -25 -151 -53.5t-88.5 -65.5t-39.5 -73.5t-10 -89.5v-115zM166 1198v98h78v-98h-78zM377 1198v98h78v-98h-78z" />
<glyph unicode="&#xe5;" horiz-adv-x="622" d="M96 209v115q0 65 14.5 110.5t54 86.5t108.5 73t178 63v158q0 84 -31 128t-109 44q-83 0 -112 -43t-29 -131v-51h-66v53q0 113 44.5 171t162.5 58t161.5 -58t43.5 -171v-815h-37l-20 78q-43 -98 -158 -98q-107 0 -156 56t-49 173zM162 209q0 -88 33.5 -130t111.5 -42 q71 0 107.5 47.5t36.5 124.5v397q-92 -25 -151 -53.5t-88.5 -65.5t-39.5 -73.5t-10 -89.5v-115zM176 1264q0 155 133 155q68 0 101.5 -41t33.5 -114q0 -72 -33.5 -112t-101.5 -40q-133 0 -133 152zM227 1264q0 -107 82 -107q84 0 84 107q0 110 -84 110q-82 0 -82 -110z" />
<glyph unicode="&#xe6;" horiz-adv-x="978" d="M96 219v105q0 65 14.5 110.5t54 86.5t108.5 73t178 63v158q0 86 -30 129t-112 43q-81 0 -110 -43t-29 -131v-51h-66v53q0 113 44 171t159 58q146 0 178 -106q40 106 181 106q118 0 162 -61t44 -180v-273h-354v-311q0 -92 31.5 -137t114.5 -45q81 0 113 46t32 136v133h63 v-133q0 -117 -45.5 -178t-162.5 -61q-147 0 -179 108q-37 -108 -178 -108q-119 0 -165 61t-46 178zM162 219q0 -91 31 -136.5t114 -45.5q81 0 112.5 46t31.5 136v387q-92 -25 -151 -53.5t-88.5 -65.5t-39.5 -73.5t-10 -89.5v-105zM518 584h289v219q0 92 -31 138t-112 46 q-83 0 -114.5 -46t-31.5 -138v-219z" />
<glyph unicode="&#xe7;" horiz-adv-x="622" d="M106 219v584q0 117 47 179t164 62t163 -62t46 -179v-111h-65v111q0 92 -31.5 138t-112.5 46q-83 0 -114 -46t-31 -138v-584q0 -91 31 -136.5t114 -45.5q81 0 112.5 46t31.5 136v133h65v-133q0 -112 -41 -172.5t-147 -66.5l-19 -70q144 -11 144 -129q0 -129 -172 -129h-86 l12 47h72q63 0 90 20.5t27 63.5q0 84 -117 84h-25l29 113q-106 6 -146.5 66.5t-40.5 172.5z" />
<glyph unicode="&#xe8;" horiz-adv-x="632" d="M106 219v584q0 117 47 179t164 62t163 -62t46 -179v-275h-354v-309q0 -91 31.5 -136.5t113.5 -45.5q81 0 112.5 46t31.5 136v133h65v-133q0 -117 -46 -178t-163 -61q-119 0 -165 61t-46 178zM172 584h289v207q0 99 -30 147.5t-114 48.5q-83 0 -114 -46t-31 -138v-219z M227 1376h72l100 -250h-49z" />
<glyph unicode="&#xe9;" horiz-adv-x="632" d="M106 219v584q0 117 47 179t164 62t163 -62t46 -179v-275h-354v-309q0 -91 31.5 -136.5t113.5 -45.5q81 0 112.5 46t31.5 136v133h65v-133q0 -117 -46 -178t-163 -61q-119 0 -165 61t-46 178zM172 584h289v207q0 99 -30 147.5t-114 48.5q-83 0 -114 -46t-31 -138v-219z M293 1126l100 250h72l-123 -250h-49z" />
<glyph unicode="&#xea;" horiz-adv-x="632" d="M106 219v584q0 117 47 179t164 62t163 -62t46 -179v-275h-354v-309q0 -91 31.5 -136.5t113.5 -45.5q81 0 112.5 46t31.5 136v133h65v-133q0 -117 -46 -178t-163 -61q-119 0 -165 61t-46 178zM168 1126l115 250h65l115 -250h-53l-95 187l-96 -187h-51zM172 584h289v207 q0 99 -30 147.5t-114 48.5q-83 0 -114 -46t-31 -138v-219z" />
<glyph unicode="&#xeb;" horiz-adv-x="632" d="M106 219v584q0 117 47 179t164 62t163 -62t46 -179v-275h-354v-309q0 -91 31.5 -136.5t113.5 -45.5q81 0 112.5 46t31.5 136v133h65v-133q0 -117 -46 -178t-163 -61q-119 0 -165 61t-46 178zM170 1198v98h78v-98h-78zM172 584h289v207q0 99 -30 147.5t-114 48.5 q-83 0 -114 -46t-31 -138v-219zM381 1198v98h78v-98h-78z" />
<glyph unicode="&#xec;" horiz-adv-x="299" d="M2 1376h72l100 -250h-49zM117 0v1024h65v-1024h-65z" />
<glyph unicode="&#xed;" horiz-adv-x="299" d="M117 0v1024h65v-1024h-65zM127 1126l100 250h72l-123 -250h-49z" />
<glyph unicode="&#xee;" horiz-adv-x="299" d="M2 1126l115 250h65l115 -250h-53l-94 187l-97 -187h-51zM117 0v1024h65v-1024h-65z" />
<glyph unicode="&#xef;" horiz-adv-x="299" d="M6 1198v98h78v-98h-78zM117 0v1024h65v-1024h-65zM217 1198v98h78v-98h-78z" />
<glyph unicode="&#xf0;" horiz-adv-x="686" d="M106 227v371q0 122 47 181t158 59q99 0 170 -80q0 231 -69 397l-103 -49l-22 43l106 49q-56 115 -162 236h78q102 -129 142 -209l106 51l23 -43l-109 -51q78 -174 78 -443v-512q0 -121 -50 -184t-171 -63t-171.5 63.5t-50.5 183.5zM174 227q0 -91 34.5 -139.5 t119.5 -48.5q84 0 118.5 48t34.5 140v453q-51 98 -159 98q-80 0 -114 -43t-34 -137v-371z" />
<glyph unicode="&#xf1;" horiz-adv-x="647" d="M117 1167q0 72 26 106t88 34q35 0 62 -16.5t42 -36t38 -36t51 -16.5q40 0 54 20.5t14 63.5h49q0 -72 -25.5 -105.5t-87.5 -33.5q-37 0 -65 16.5t-42.5 35.5t-37.5 35.5t-50 16.5q-40 0 -52.5 -20.5t-12.5 -63.5h-51zM121 0v1024h39l20 -86q47 106 164 106 q106 0 151.5 -56t45.5 -175v-813h-66v813q0 81 -35 127.5t-106 46.5t-109.5 -48.5t-38.5 -129.5v-809h-65z" />
<glyph unicode="&#xf2;" horiz-adv-x="632" d="M106 219v584q0 117 47 179t164 62q116 0 162.5 -62t46.5 -179v-584q0 -118 -45.5 -178.5t-163.5 -60.5q-119 0 -165 61t-46 178zM172 219q0 -91 31 -136.5t114 -45.5t113.5 45.5t30.5 136.5v584q0 92 -30.5 138t-113.5 46t-114 -46t-31 -138v-584zM195 1376h71l101 -250 h-50z" />
<glyph unicode="&#xf3;" horiz-adv-x="632" d="M106 219v584q0 117 47 179t164 62q116 0 162.5 -62t46.5 -179v-584q0 -118 -45.5 -178.5t-163.5 -60.5q-119 0 -165 61t-46 178zM172 219q0 -91 31 -136.5t114 -45.5t113.5 45.5t30.5 136.5v584q0 92 -30.5 138t-113.5 46t-114 -46t-31 -138v-584zM293 1126l100 250h72 l-123 -250h-49z" />
<glyph unicode="&#xf4;" horiz-adv-x="632" d="M106 219v584q0 117 47 179t164 62q116 0 162.5 -62t46.5 -179v-584q0 -118 -45.5 -178.5t-163.5 -60.5q-119 0 -165 61t-46 178zM168 1126l115 250h65l115 -250h-53l-95 187l-96 -187h-51zM172 219q0 -91 31 -136.5t114 -45.5t113.5 45.5t30.5 136.5v584q0 92 -30.5 138 t-113.5 46t-114 -46t-31 -138v-584z" />
<glyph unicode="&#xf5;" horiz-adv-x="636" d="M106 1167q0 72 26 106t89 34q35 0 62 -16.5t42 -36t38 -36t51 -16.5q40 0 53.5 20t13.5 64h49q0 -73 -25.5 -106t-86.5 -33q-37 0 -65 16.5t-42.5 35.5t-37.5 35.5t-50 16.5q-40 0 -52.5 -20.5t-12.5 -63.5h-52zM111 219v584q0 117 47 179t164 62q116 0 162 -62t46 -179 v-584q0 -118 -45 -178.5t-163 -60.5q-119 0 -165 61t-46 178zM176 219q0 -91 31.5 -136.5t114.5 -45.5q82 0 112.5 45.5t30.5 136.5v584q0 93 -30.5 138.5t-112.5 45.5q-83 0 -114.5 -46t-31.5 -138v-584z" />
<glyph unicode="&#xf6;" horiz-adv-x="632" d="M106 219v584q0 117 47 179t164 62q116 0 162.5 -62t46.5 -179v-584q0 -118 -45.5 -178.5t-163.5 -60.5q-119 0 -165 61t-46 178zM172 219q0 -91 31 -136.5t114 -45.5t113.5 45.5t30.5 136.5v584q0 92 -30.5 138t-113.5 46t-114 -46t-31 -138v-584zM172 1198v98h78v-98 h-78zM383 1198v98h78v-98h-78z" />
<glyph unicode="&#xf7;" horiz-adv-x="837" d="M121 547v53h594v-53h-594zM373 262v113h92v-113h-92zM373 770v113h92v-113h-92z" />
<glyph unicode="&#xf8;" horiz-adv-x="632" d="M106 219v584q0 117 47 179t164 62q46 0 86 -14l13 55h43l-17 -73q84 -52 84 -209v-584q0 -118 -45.5 -178.5t-163.5 -60.5q-56 0 -88 14l-12 -55h-41l14 71q-84 52 -84 209zM172 219q0 -95 33 -139l188 891q-32 16 -76 16q-83 0 -114 -46t-31 -138v-584zM242 51 q25 -14 75 -14q83 0 113.5 45.5t30.5 136.5v584q0 95 -33 139z" />
<glyph unicode="&#xf9;" horiz-adv-x="653" d="M117 211v813h65v-813q0 -84 36 -129t108 -45q71 0 108 47.5t37 128.5v811h66v-1024h-37l-21 84q-22 -49 -64.5 -76.5t-99.5 -27.5q-106 0 -152 56.5t-46 174.5zM240 1376h71l101 -250h-50z" />
<glyph unicode="&#xfa;" horiz-adv-x="653" d="M117 211v813h65v-813q0 -84 36 -129t108 -45q71 0 108 47.5t37 128.5v811h66v-1024h-37l-21 84q-22 -49 -64.5 -76.5t-99.5 -27.5q-106 0 -152 56.5t-46 174.5zM301 1126l100 250h72l-123 -250h-49z" />
<glyph unicode="&#xfb;" horiz-adv-x="653" d="M117 211v813h65v-813q0 -84 36 -129t108 -45q71 0 108 47.5t37 128.5v811h66v-1024h-37l-21 84q-22 -49 -64.5 -76.5t-99.5 -27.5q-106 0 -152 56.5t-46 174.5zM178 1126l115 250h65l115 -250h-53l-94 187l-97 -187h-51z" />
<glyph unicode="&#xfc;" horiz-adv-x="653" d="M117 211v813h65v-813q0 -84 36 -129t108 -45q71 0 108 47.5t37 128.5v811h66v-1024h-37l-21 84q-22 -49 -64.5 -76.5t-99.5 -27.5q-106 0 -152 56.5t-46 174.5zM182 1198v98h78v-98h-78zM393 1198v98h78v-98h-78z" />
<glyph unicode="&#xfd;" horiz-adv-x="630" d="M55 -279q27 -12 70 -12q59 0 92.5 34.5t48.5 106.5l31 148l-215 1026h70l176 -895l178 895h69l-245 -1180q-21 -101 -67.5 -146.5t-137.5 -45.5q-43 0 -70 10v59zM309 1126l101 250h71l-123 -250h-49z" />
<glyph unicode="&#xfe;" horiz-adv-x="643" d="M117 -328v1782h65v-504q49 99 162 99q105 0 149 -57t44 -179v-598q0 -121 -45 -178t-148 -57q-114 0 -162 98v-406h-65zM182 248q0 -211 152 -211q77 0 107 42.5t30 135.5v573q0 105 -28 154t-109 49q-75 0 -113.5 -48.5t-38.5 -133.5v-561z" />
<glyph unicode="&#xff;" horiz-adv-x="630" d="M55 -279q27 -12 70 -12q59 0 92.5 34.5t48.5 106.5l31 148l-215 1026h70l176 -895l178 895h69l-245 -1180q-21 -101 -67.5 -146.5t-137.5 -45.5q-43 0 -70 10v59zM182 1198v98h78v-98h-78zM393 1198v98h78v-98h-78z" />
<glyph unicode="&#x152;" horiz-adv-x="978" d="M127 227v977q0 120 49.5 185t171.5 65q104 0 154 -63v43h381v-64h-314v-616h269v-62h-269v-629h314v-63h-381v41q-48 -61 -154 -61q-122 0 -171.5 63.5t-49.5 183.5zM195 227q0 -90 34.5 -139t118.5 -49q85 0 119.5 48.5t34.5 139.5v977q0 92 -34 140.5t-120 48.5 q-84 0 -118.5 -48.5t-34.5 -140.5v-977z" />
<glyph unicode="&#x153;" horiz-adv-x="987" d="M106 219v584q0 117 47 179t164 62q137 0 177 -106q42 106 178 106q117 0 163 -62t46 -179v-275h-355v-309q0 -91 32 -136.5t114 -45.5q81 0 112 45.5t31 136.5v133h66v-133q0 -117 -46 -178t-163 -61q-136 0 -176 102q-40 -102 -179 -102q-119 0 -165 61t-46 178z M172 219q0 -91 31 -136.5t114 -45.5t113.5 45.5t30.5 136.5v584q0 92 -30.5 138t-113.5 46t-114 -46t-31 -138v-584zM526 584h289v207q0 100 -29.5 148t-113.5 48q-83 0 -114.5 -46t-31.5 -138v-219z" />
<glyph unicode="&#x178;" horiz-adv-x="604" d="M55 1434h72l174 -715l176 715h72l-213 -811v-623h-68v623zM158 1536v98h78v-98h-78zM369 1536v98h77v-98h-77z" />
<glyph unicode="&#x2c6;" horiz-adv-x="495" d="M100 1126l115 250h66l114 -250h-53l-94 187l-96 -187h-52z" />
<glyph unicode="&#x2dc;" horiz-adv-x="626" d="M100 1167q0 72 26 106t89 34q35 0 62 -16.5t42 -36t38 -36t51 -16.5q40 0 53.5 20t13.5 64h49q0 -73 -25.5 -106t-86.5 -33q-37 0 -65 16.5t-42.5 35.5t-37.5 35.5t-50 16.5q-40 0 -52.5 -20.5t-12.5 -63.5h-52z" />
<glyph unicode="&#x2000;" horiz-adv-x="914" />
<glyph unicode="&#x2001;" horiz-adv-x="1829" />
<glyph unicode="&#x2002;" horiz-adv-x="914" />
<glyph unicode="&#x2003;" horiz-adv-x="1829" />
<glyph unicode="&#x2004;" horiz-adv-x="609" />
<glyph unicode="&#x2005;" horiz-adv-x="457" />
<glyph unicode="&#x2006;" horiz-adv-x="304" />
<glyph unicode="&#x2007;" horiz-adv-x="304" />
<glyph unicode="&#x2008;" horiz-adv-x="228" />
<glyph unicode="&#x2009;" horiz-adv-x="365" />
<glyph unicode="&#x200a;" horiz-adv-x="101" />
<glyph unicode="&#x2010;" horiz-adv-x="550" d="M100 543v61h349v-61h-349z" />
<glyph unicode="&#x2011;" horiz-adv-x="550" d="M100 543v61h349v-61h-349z" />
<glyph unicode="&#x2012;" horiz-adv-x="550" d="M100 543v61h349v-61h-349z" />
<glyph unicode="&#x2013;" horiz-adv-x="755" d="M100 543v61h553v-61h-553z" />
<glyph unicode="&#x2014;" horiz-adv-x="1083" d="M100 545v57h881v-57h-881z" />
<glyph unicode="&#x2018;" horiz-adv-x="294" d="M96 1454h99v-385h-41z" />
<glyph unicode="&#x2019;" horiz-adv-x="288" d="M100 1069v385h99l-58 -385h-41z" />
<glyph unicode="&#x201a;" horiz-adv-x="335" d="M121 -182v383h98l-57 -383h-41z" />
<glyph unicode="&#x201c;" horiz-adv-x="509" d="M100 1454h99v-385h-41zM311 1454h97v-385h-41z" />
<glyph unicode="&#x201d;" horiz-adv-x="509" d="M100 1069v385h99l-58 -385h-41zM311 1069v385h97l-56 -385h-41z" />
<glyph unicode="&#x201e;" horiz-adv-x="542" d="M117 -182v383h98l-57 -383h-41zM328 -182v383h96l-55 -383h-41z" />
<glyph unicode="&#x2022;" horiz-adv-x="550" d="M100 580q0 72 51 123t123 51t123.5 -51t51.5 -123t-51.5 -123t-123.5 -51t-123 51t-51 123z" />
<glyph unicode="&#x2026;" horiz-adv-x="831" d="M121 0v113h92v-113h-92zM369 0v113h92v-113h-92zM616 0v113h93v-113h-93z" />
<glyph unicode="&#x202f;" horiz-adv-x="365" />
<glyph unicode="&#x2039;" horiz-adv-x="497" d="M100 512l219 379h76l-217 -379l217 -379h-76z" />
<glyph unicode="&#x203a;" horiz-adv-x="497" d="M100 133l217 379l-217 379h78l217 -379l-217 -379h-78z" />
<glyph unicode="&#x205f;" horiz-adv-x="457" />
<glyph unicode="&#x20ac;" horiz-adv-x="765" d="M80 584v47h102v188h-102v47h102v338q0 120 49.5 185t171.5 65q121 0 171.5 -65.5t50.5 -184.5v-160h-68v160q0 90 -35 139.5t-119 49.5t-118.5 -48.5t-34.5 -140.5v-338h287l-13 -47h-274v-188h229q-5 -13 -12 -47h-217v-357q0 -92 33.5 -140t119.5 -48q85 0 119.5 48.5 t34.5 139.5v183h68v-183q0 -119 -50.5 -183t-171.5 -64q-122 0 -171.5 63.5t-49.5 183.5v357h-102z" />
<glyph unicode="&#x2122;" horiz-adv-x="733" d="M100 1399v35h201v-35h-80v-375h-39v375h-82zM360 1024v410h39l86 -250l88 250h39v-410h-39v315l-71 -213h-31l-72 213v-315h-39z" />
<glyph unicode="&#x25fc;" horiz-adv-x="1024" d="M0 0v1024h1024v-1024h-1024z" />
</font>
</defs>
</svg>
